HIERARCHY
ROOT root
{
	OFFSET	0	13.1	24.9
	CHANNELS 6  Xposition Yposition Zposition Xrotation Yrotation Zrotation
	JOINT spine_1
	{
		OFFSET	0	9.99999	0
		CHANNELS 3  Xrotation Yrotation Zrotation
		JOINT spine_2
		{
			OFFSET	0	112	-10
			CHANNELS 3  Xrotation Yrotation Zrotation
			JOINT spine_3
			{
				OFFSET	0	206.5	19.3
				CHANNELS 3  Xrotation Yrotation Zrotation
				JOINT spine_4
				{
					OFFSET	0	110.4	14.6
					CHANNELS 3  Xrotation Yrotation Zrotation
					JOINT neck_1
					{
						OFFSET	0	71.8	-50.3
						CHANNELS 3  Xrotation Yrotation Zrotation
						JOINT neck_2
						{
							OFFSET	0	86.2	-25.8
							CHANNELS 3  Xrotation Yrotation Zrotation
							JOINT head_ee
							{
								OFFSET	0	179.8	-8.7
								CHANNELS 3  Xrotation Yrotation Zrotation
								End Site
								{
									OFFSET	1	0	0
								}
							}
						}
					}
					JOINT left_clavicle
					{
						OFFSET	-43.2	22.4	-70.8
						CHANNELS 3  Xrotation Yrotation Zrotation
						JOINT left_shoulder
						{
							OFFSET	-93.9	-5.79999	48.7
							CHANNELS 3  Xrotation Yrotation Zrotation
							JOINT left_elbow
							{
								OFFSET	-291.4	-30.8	15.2
								CHANNELS 3  Xrotation Yrotation Zrotation
								JOINT left_lowarm_twist
								{
									OFFSET	-110.7	-3.89999	13.6
									CHANNELS 3  Xrotation Yrotation Zrotation
									JOINT left_hand
									{
										OFFSET	-110.7	-3.89999	13.6
										CHANNELS 3  Xrotation Yrotation Zrotation
										JOINT left_ee
										{
											OFFSET	-80.8	-5.10001	12.1
											CHANNELS 3  Xrotation Yrotation Zrotation
											End Site
											{
												OFFSET	1	0	0
											}
										}
									}
								}
							}
						}
					}
					JOINT right_clavicle
					{
						OFFSET	43.2	22.4	-70.8
						CHANNELS 3  Xrotation Yrotation Zrotation
						JOINT right_shoulder
						{
							OFFSET	93.9	-5.79999	48.7
							CHANNELS 3  Xrotation Yrotation Zrotation
							JOINT right_elbow
							{
								OFFSET	291.4	-30.8	15.2
								CHANNELS 3  Xrotation Yrotation Zrotation
								JOINT right_lowarm_twist
								{
									OFFSET	110.7	-3.89999	13.6
									CHANNELS 3  Xrotation Yrotation Zrotation
									JOINT right_hand
									{
										OFFSET	110.7	-3.89999	13.6
										CHANNELS 3  Xrotation Yrotation Zrotation
										JOINT right_ee
										{
											OFFSET	80.8	-5.10001	12.1
											CHANNELS 3  Xrotation Yrotation Zrotation
											End Site
											{
												OFFSET	1	0	0
											}
										}
									}
								}
							}
						}
					}
				}
			}
		}
	}
	JOINT left_hip
	{
		OFFSET	-82.8	-127.5	0.300001
		CHANNELS 3  Xrotation Yrotation Zrotation
		JOINT left_knee
		{
			OFFSET	-28.2	-396.7	2.2
			CHANNELS 3  Xrotation Yrotation Zrotation
			JOINT left_ankle
			{
				OFFSET	-11.7	-411.3	35.4
				CHANNELS 3  Xrotation Yrotation Zrotation
				JOINT left_toes
				{
					OFFSET	0	-60	-88.6
					CHANNELS 3  Xrotation Yrotation Zrotation
					JOINT left_foot_ee
					{
						OFFSET	-22.5	-16.5	-42.2
						CHANNELS 3  Xrotation Yrotation Zrotation
						End Site
						{
							OFFSET	1	0	0
						}
					}
				}
			}
		}
	}
	JOINT right_hip
	{
		OFFSET	82.8	-127.5	0.300001
		CHANNELS 3  Xrotation Yrotation Zrotation
		JOINT right_knee
		{
			OFFSET	28.2	-396.7	2.2
			CHANNELS 3  Xrotation Yrotation Zrotation
			JOINT right_ankle
			{
				OFFSET	11.7	-411.3	35.4
				CHANNELS 3  Xrotation Yrotation Zrotation
				JOINT right_toes
				{
					OFFSET	0	-60	-88.6
					CHANNELS 3  Xrotation Yrotation Zrotation
					JOINT right_foot_ee
					{
						OFFSET	22.5	-16.5	-42.2
						CHANNELS 3  Xrotation Yrotation Zrotation
						End Site
						{
							OFFSET	1	0	0
						}
					}
				}
			}
		}
	}
}
MOTION
Frames: 5
Frame Time: 0.02
2827.80135905 709.713 -1683.54241434 -4.62456515783 47.0912415521 -4.12742362203 3.50149 0.613332 3.20182 3.5071 0.408459 3.23431 3.5277 -0.0799241 3.25899 3.51315 0.435502 3.23078 -13.0357 20.0502 4.95255 -13.9037 35.1534 11.1266 -0.0 0.0 -0.0 3.71261 11.1617 7.63169 -9.02612 -21.9554 44.8807 1.68427 -39.8362 0.610338 -32.3973 -2.18126 3.46291 -2.22933 11.5186 -9.43856 -0.0 0.0 -0.0 11.4818 21.6565 -22.622 -19.6977 25.9763 -68.4924 0.191783 5.42717 -0.00908986 -8.85811 0.394984 -1.06023 3.24147 15.162 -15.4622 0.0 0.0 0.0 2.70265 1.38483 12.6789 -1.82036 0.0706606 0.270414 29.6683 15.8127 -3.90735 -20.4665 0.0 0.0 -0.0 0.0 -0.0 23.2615 23.5598 6.25365 -57.4039 1.92627 -8.23325 18.6835 -12.5451 2.57721 -8.1427 0.0 0.0 0.0 0.0 0.0 
2827.59819699 709.713 -1677.11266464 -4.71868519146 48.1423214798 -4.00000779713 3.50149 0.613332 3.20182 3.5071 0.408459 3.23431 3.5277 -0.0799241 3.25899 3.51315 0.435502 3.23078 -13.0357 20.0502 4.95255 -13.9037 35.1534 11.1266 -0.0 0.0 -0.0 3.71261 11.1617 7.63169 -9.02612 -21.9554 44.8807 1.68427 -39.8362 0.610338 -32.3973 -2.18126 3.46291 -2.22933 11.5186 -9.43856 -0.0 0.0 -0.0 11.4818 21.6565 -22.622 -19.6977 25.9763 -68.4924 0.191783 5.42717 -0.00908986 -8.85811 0.394984 -1.06023 3.24147 15.162 -15.4622 0.0 0.0 0.0 2.70265 1.38483 12.6789 -1.82036 0.0706606 0.270414 29.6683 15.8127 -3.90735 -20.4665 0.0 0.0 -0.0 0.0 -0.0 23.2615 23.5598 6.25365 -57.4039 1.92627 -8.23325 18.6835 -12.5451 2.57721 -8.1427 0.0 0.0 0.0 0.0 0.0 
2814.23946118 716.082 -1661.7459258 -4.55606016537 50.6886346923 -3.80728613048 3.4653 0.431028 3.18722 3.47093 0.22745 3.20816 3.48122 -0.257869 3.20586 3.46696 0.251405 3.20637 -12.8952 20.0689 4.56472 -13.7699 35.4019 10.7288 -0.0 0.0 -0.0 3.62012 11.1633 7.47353 -7.61589 -22.0167 44.2692 2.06486 -45.6423 0.86896 -32.7948 -2.2195 3.49664 -2.72518 12.5483 -12.1106 -0.0 0.0 -0.0 11.2901 21.6923 -22.1829 -21.4561 24.2958 -68.4753 0.159263 4.51107 -0.00627289 -10.0981 0.463217 -1.20341 2.77818 7.75271 -15.6554 0.0 0.0 0.0 0.457812 3.05945 14.1664 -0.0703174 0.00288905 0.0104041 29.528 18.6995 -3.93017 -21.2747 0.0 0.0 -0.0 0.0 -0.0 24.9801 23.0044 5.28877 -56.3029 1.81427 -8.10569 18.7251 -13.7373 2.58803 -7.70032 0.0 0.0 0.0 0.0 0.0 
2803.06154612 722.895 -1645.01618345 -3.98051734558 52.7691739873 -4.15140153784 3.30304 0.505952 3.30115 3.30906 0.294985 3.32662 3.32386 -0.218004 3.33254 3.3085 0.310746 3.32519 -12.6714 20.0443 3.53717 -13.5738 35.9499 9.69776 -0.0 0.0 -0.0 3.52011 10.9283 7.29447 -5.78578 -20.7953 43.0782 2.35638 -49.4064 1.08409 -32.9894 -2.23829 3.51305 -2.77442 12.2876 -12.5667 -0.0 0.0 -0.0 11.5031 21.6773 -22.6689 -22.7717 21.7468 -67.6603 0.15272 4.32646 -0.00576878 -9.8397 0.448744 -1.1737 2.52691 7.94989 -13.8161 0.0 0.0 0.0 -0.415971 1.31033 13.4515 1.13721 -0.0484966 -0.167767 24.8404 19.9502 -3.40276 -22.786 0.0 0.0 -0.0 0.0 -0.0 25.6113 21.9904 4.2483 -49.5108 1.17983 -7.27418 17.9552 -10.8326 2.47879 -7.90974 0.0 0.0 0.0 0.0 0.0 
2788.51321296 715.697 -1630.39181331 -5.18080583989 55.7033307433 -2.14122059125 3.08487 0.356617 3.23956 3.09069 0.149864 3.25567 3.09726 -0.363588 3.23879 3.08265 0.152201 3.25556 -12.1717 19.9788 2.96973 -13.0131 36.0966 8.96233 -0.0 0.0 -0.0 2.91845 10.3212 6.23454 -0.930924 -20.3029 40.3878 2.94301 -55.5417 1.55001 -32.4632 -2.18758 3.46852 -2.89233 12.6107 -13.16 -0.0 0.0 -0.0 11.7132 21.59 -23.1556 -25.2656 17.713 -66.3295 0.154698 4.38228 -0.0059189 -11.0713 0.518942 -1.31475 1.75158 -2.09037 -12.6132 0.0 0.0 0.0 -4.24445 2.19588 13.775 4.99939 -0.237917 -0.72988 26.6081 22.478 -3.65544 -24.8178 0.0 0.0 -0.0 0.0 -0.0 31.1292 20.2781 0.162041 -40.1897 0.47888 -6.02482 13.8463 -9.22124 1.94127 -9.20067 0.0 0.0 0.0 0.0 0.0 
